<svg width="80" height="80" viewBox="0 0 80 80" fill="none" xmlns="http://www.w3.org/2000/svg">
<path opacity="0.6" d="M0.5 40C0.5 18.1848 18.1848 0.5 40 0.5C61.8152 0.5 79.5 18.1848 79.5 40C79.5 61.8152 61.8152 79.5 40 79.5C18.1848 79.5 0.5 61.8152 0.5 40Z" fill="#F2F2F2" stroke="#EEEEEE"/>
<path d="M22.4704 30.8036C21.689 31.585 21.25 32.6448 21.25 33.7499V52.4999C21.25 53.605 21.689 54.6648 22.4704 55.4462C23.2518 56.2276 24.3116 56.6666 25.4167 56.6666H54.5833C55.6884 56.6666 56.7482 56.2276 57.5296 55.4462C58.311 54.6648 58.75 53.605 58.75 52.4999V33.7499C58.75 32.6448 58.311 31.585 57.5296 30.8036C56.7482 30.0222 55.6884 29.5833 54.5833 29.5833H52.6458C51.96 29.5834 51.2848 29.4142 50.6801 29.0907C50.0753 28.7673 49.5598 28.2996 49.1792 27.7291L47.4875 25.1874C47.1069 24.6169 46.5913 24.1492 45.9866 23.8258C45.3819 23.5023 44.7066 23.3331 44.0208 23.3333H35.9792C35.2934 23.3331 34.6181 23.5023 34.0134 23.8258C33.4087 24.1492 32.8931 24.6169 32.5125 25.1874L30.8208 27.7291C30.4402 28.2996 29.9247 28.7673 29.3199 29.0907C28.7152 29.4142 28.04 29.5834 27.3542 29.5833H25.4167C24.3116 29.5833 23.2518 30.0222 22.4704 30.8036Z" stroke="#6B6B76" stroke-width="2" stroke-linecap="round" stroke-linejoin="round"/>
<path d="M44.4194 46.5027C45.5915 45.3306 46.25 43.7409 46.25 42.0833C46.25 40.4257 45.5915 38.8359 44.4194 37.6638C43.2473 36.4917 41.6576 35.8333 40 35.8333C38.3424 35.8333 36.7527 36.4917 35.5806 37.6638C34.4085 38.8359 33.75 40.4257 33.75 42.0833C33.75 43.7409 34.4085 45.3306 35.5806 46.5027C36.7527 47.6748 38.3424 48.3333 40 48.3333C41.6576 48.3333 43.2473 47.6748 44.4194 46.5027Z" stroke="#6B6B76" stroke-width="2" stroke-linecap="round" stroke-linejoin="round"/>
</svg>
