<svg width="179" height="64" viewBox="0 0 179 64" fill="none" xmlns="http://www.w3.org/2000/svg">
<path d="M7.64692 45.5091C12.531 45.5091 15.4901 42.6455 15.4901 37.6182V18.75H9.50828V36.1068C9.50828 38.3818 8.42646 39.7818 6.64465 39.7818C5.6901 39.7818 4.56056 39.3523 3.51056 38.3023L0.233283 41.9295C2.39692 44.4114 4.6401 45.5091 7.64692 45.5091ZM27.513 45.5091C33.6539 45.5091 36.3585 42.8682 36.3585 37.4432V28.7091H30.6948V36.0591C30.6948 39.4318 29.8198 40.9273 27.513 40.9273C25.1903 40.9273 24.3153 39.4318 24.3153 36.0591V28.7091H18.6517V37.4432C18.6517 42.8682 21.3562 45.5091 27.513 45.5091ZM38.4896 43.1386C40.3986 44.7773 42.5146 45.5091 45.235 45.5091C49.6577 45.5091 52.3623 43.6159 52.3623 40.3227C52.3623 37.7455 50.6282 36.2023 47.4305 35.0568C45.3623 34.325 44.4396 33.8318 44.4396 33.0841C44.4396 32.4795 45.0441 32.0182 46.2691 32.0182C47.4464 32.0182 48.7668 32.3841 49.785 33.0523L51.5509 29.8227C49.8805 28.7886 47.8759 28.2318 45.8555 28.2318C41.7509 28.2318 39.0623 30.4909 39.0623 33.4182C39.0623 36.5045 42.0532 37.6977 44.1214 38.4614C45.6964 39.0341 46.4123 39.4636 46.4123 40.1955C46.4123 40.9591 45.6805 41.3568 44.6782 41.3568C43.4214 41.3568 41.9418 40.8 40.7009 39.7341L38.4896 43.1386ZM53.4585 28.7091V33.0045H55.7972V39.2727C55.7972 43.1864 57.8335 45.5091 61.3176 45.5091C62.829 45.5091 64.5472 45.0636 65.7722 44.3318L63.7835 40.1477C63.4494 40.3545 63.0835 40.45 62.7176 40.45C61.8903 40.45 61.4608 39.8932 61.4608 38.8432V33.0045H64.8972V28.7091H61.4608V22.6H55.7972V28.7091H53.4585Z" fill="#27272A"/>
<path d="M70 25C70 11.1929 81.1929 0 95 0H154C167.807 0 179 11.1929 179 25V45H70V25Z" fill="#6B6B76"/>
<path d="M101.733 18.0114V33H106.006V18.0114H110.461V14.25H97.2788V18.0114H101.733ZM115.163 33.3636C116.663 33.3636 117.959 32.8068 118.993 31.7386V33H123.038V21.3636H118.993V22.625C117.959 21.5568 116.663 21 115.163 21C111.788 21 109.413 23.6818 109.413 27.1591C109.413 30.6477 111.788 33.3636 115.163 33.3636ZM113.675 27.1818C113.675 25.5909 114.822 24.4318 116.391 24.4318C117.947 24.4318 119.084 25.5795 119.084 27.1818C119.084 28.7727 117.947 29.9318 116.391 29.9318C114.822 29.9318 113.675 28.7727 113.675 27.1818ZM123.843 33H128.695L131.275 29.7045L133.854 33H138.707L133.718 26.8864L137.991 21.3636H133.298L131.275 24.0795L129.252 21.3636H124.559L128.832 26.8864L123.843 33ZM143.6 33V21.3636H139.555V33H143.6ZM139.214 16.5341C139.214 17.8409 140.27 18.8977 141.577 18.8977C142.884 18.8977 143.941 17.8409 143.941 16.5341C143.941 15.2273 142.884 14.1705 141.577 14.1705C140.27 14.1705 139.214 15.2273 139.214 16.5341Z" fill="#F2F2F2"/>
<rect x="70" y="48" width="7" height="8" fill="#6B6B76"/>
<rect x="77" y="56" width="8" height="8" fill="#6B6B76"/>
<rect x="85" y="48" width="8" height="8" fill="#6B6B76"/>
<rect x="93" y="56" width="8" height="8" fill="#6B6B76"/>
<rect x="101" y="48" width="8" height="8" fill="#6B6B76"/>
<rect x="109" y="56" width="8" height="8" fill="#6B6B76"/>
<rect x="117" y="48" width="8" height="8" fill="#6B6B76"/>
<rect x="125" y="56" width="8" height="8" fill="#6B6B76"/>
<rect x="133" y="48" width="8" height="8" fill="#6B6B76"/>
<rect x="157" y="56" width="8" height="8" fill="#6B6B76"/>
<rect x="141" y="56" width="8" height="8" fill="#6B6B76"/>
<rect x="165" y="48" width="8" height="8" fill="#6B6B76"/>
<rect x="149" y="48" width="8" height="8" fill="#6B6B76"/>
<rect x="173" y="56" width="6" height="8" fill="#6B6B76"/>
</svg>
