<svg width="87" height="80" viewBox="0 0 87 80" fill="none" xmlns="http://www.w3.org/2000/svg">
    <path d="M79.5 40C79.5 61.8152 61.8152 79.5 40 79.5C18.1848 79.5 0.5 61.8152 0.5 40C0.5 18.1848 18.1848 0.5 40 0.5C61.8152 0.5 79.5 18.1848 79.5 40Z" fill="#F7F8FA" stroke="#CFCFCF" />
    <path
        d="M46.6225 31.6225C48.2728 29.9722 49.1999 27.7339 49.1999 25.4C49.1999 23.0661 48.2728 20.8278 46.6225 19.1775C44.9722 17.5271 42.7338 16.6 40.3999 16.6C38.066 16.6 35.8277 17.5271 34.1774 19.1775C32.5271 20.8278 31.5999 23.0661 31.5999 25.4C31.5999 27.7339 32.5271 29.9722 34.1774 31.6225C35.8277 33.2729 38.066 34.2 40.3999 34.2C42.7338 34.2 44.9722 33.2729 46.6225 31.6225Z"
        stroke="#6B6B76" stroke-width="2" stroke-linecap="round" stroke-linejoin="round" />
    <path
        d="M29.5105 45.3106C32.3986 42.4225 36.3156 40.8 40.3999 40.8C44.4843 40.8 48.4013 42.4225 51.2894 45.3106C54.1774 48.1986 55.7999 52.1157 55.7999 56.2H24.9999C24.9999 52.1157 26.6224 48.1986 29.5105 45.3106Z"
        stroke="#6B6B76" stroke-width="2" stroke-linecap="round" stroke-linejoin="round" />
    <path opacity="0.9" d="M69.5 47.5H70.5C79.3366 47.5 86.5 54.6634 86.5 63.5C86.5 72.3366 79.3366 79.5 70.5 79.5H69.5C60.6634 79.5 53.5 72.3366 53.5 63.5C53.5 54.6634 60.6634 47.5 69.5 47.5Z"
        fill="#FEB700" stroke="#FEB700" />
    <path
        d="M71.802 57.725L73.3575 59.375H76.8V69.275H63.2V59.375H66.6425L68.198 57.725H71.802V57.725ZM72.55 56.075H67.45L65.8945 57.725H63.2C62.265 57.725 61.5 58.4675 61.5 59.375V69.275C61.5 70.1825 62.265 70.925 63.2 70.925H76.8C77.735 70.925 78.5 70.1825 78.5 69.275V59.375C78.5 58.4675 77.735 57.725 76.8 57.725H74.1055L72.55 56.075ZM70 61.85C71.4025 61.85 72.55 62.9638 72.55 64.325C72.55 65.6863 71.4025 66.8 70 66.8C68.5975 66.8 67.45 65.6863 67.45 64.325C67.45 62.9638 68.5975 61.85 70 61.85ZM70 60.2C67.654 60.2 65.75 62.048 65.75 64.325C65.75 66.602 67.654 68.45 70 68.45C72.346 68.45 74.25 66.602 74.25 64.325C74.25 62.048 72.346 60.2 70 60.2Z"
        fill="white" />
</svg>
